<svg width="14" height="16" viewBox="0 0 14 16" fill="none" xmlns="http://www.w3.org/2000/svg">
<path d="M3.24749 0.752513C3.1108 0.615829 2.8892 0.615829 2.75251 0.752513L0.525126 2.9799C0.388442 3.11658 0.388442 3.33819 0.525126 3.47487C0.66181 3.61156 0.883417 3.61156 1.0201 3.47487L3 1.49498L4.9799 3.47487C5.11658 3.61156 5.33819 3.61156 5.47487 3.47487C5.61156 3.33819 5.61156 3.11658 5.47487 2.9799L3.24749 0.752513ZM3.35 13L3.35 1L2.65 1L2.65 13L3.35 13Z" fill="#B38A77"/>
<path d="M13.7475 13.2475C13.8842 13.1108 13.8842 12.8892 13.7475 12.7525L11.5201 10.5251C11.3834 10.3884 11.1618 10.3884 11.0251 10.5251C10.8884 10.6618 10.8884 10.8834 11.0251 11.0201L13.005 13L11.0251 14.9799C10.8884 15.1166 10.8884 15.3382 11.0251 15.4749C11.1618 15.6116 11.3834 15.6116 11.5201 15.4749L13.7475 13.2475ZM2.65625 13.35H13.5V12.65H2.65625V13.35Z" fill="#B38A77"/>
</svg>
