<svg width="15" height="13" viewBox="0 0 15 13" fill="none" xmlns="http://www.w3.org/2000/svg">
<path d="M2.41818 7C2.79431 7 3.15503 7.1317 3.42099 7.36612C3.68695 7.60054 3.83636 7.91848 3.83636 8.25V8.875H11.1636V8.25C11.1636 7.91848 11.3131 7.60054 11.579 7.36612C11.845 7.1317 12.2057 7 12.5818 7C12.9579 7 13.3187 7.1317 13.5846 7.36612C13.8506 7.60054 14 7.91848 14 8.25V11.375C14 11.5408 13.9253 11.6997 13.7923 11.8169C13.6593 11.9342 13.479 12 13.2909 12H1.70909C1.52103 12 1.34067 11.9342 1.20769 11.8169C1.07471 11.6997 1 11.5408 1 11.375V8.25C1 7.91848 1.14942 7.60054 1.41538 7.36612C1.68134 7.1317 2.04206 7 2.41818 7Z" stroke="#B38A77" stroke-width="0.7" stroke-linecap="round" stroke-linejoin="round"/>
<path d="M2 7V4C2 3.20435 2.24144 2.44129 2.67121 1.87868C3.10098 1.31607 3.68388 1 4.29167 1H10.7083C11.3161 1 11.899 1.31607 12.3288 1.87868C12.7586 2.44129 13 3.20435 13 4V7" stroke="#B38A77" stroke-width="0.7" stroke-linecap="round" stroke-linejoin="round"/>
</svg>
