<svg width="12" height="14" viewBox="0 0 12 14" fill="none" xmlns="http://www.w3.org/2000/svg">
<path d="M0 1H12" stroke="#B38A77" stroke-width="0.7"/>
<path d="M0 13H12" stroke="#B38A77" stroke-width="0.7"/>
<path d="M5.75251 12.7475C5.8892 12.8842 6.1108 12.8842 6.24749 12.7475L8.47487 10.5201C8.61156 10.3834 8.61156 10.1618 8.47487 10.0251C8.33819 9.88844 8.11658 9.88844 7.9799 10.0251L6 12.005L4.0201 10.0251C3.88342 9.88844 3.66181 9.88844 3.52513 10.0251C3.38844 10.1618 3.38844 10.3834 3.52513 10.5201L5.75251 12.7475ZM5.65 1.5L5.65 12.5L6.35 12.5L6.35 1.5L5.65 1.5Z" fill="#B38A77"/>
<path d="M6.24749 1.25251C6.1108 1.11583 5.8892 1.11583 5.75251 1.25251L3.52513 3.4799C3.38844 3.61658 3.38844 3.83819 3.52513 3.97487C3.66181 4.11156 3.88342 4.11156 4.0201 3.97487L6 1.99498L7.9799 3.97487C8.11658 4.11156 8.33819 4.11156 8.47487 3.97487C8.61156 3.83819 8.61156 3.61658 8.47487 3.4799L6.24749 1.25251ZM6.35 12.5L6.35 1.5L5.65 1.5L5.65 12.5L6.35 12.5Z" fill="#B38A77"/>
</svg>
