<svg width="16" height="16" viewBox="0 0 16 16" fill="none" xmlns="http://www.w3.org/2000/svg">
<path d="M1 1L1.66667 9L4.33333 3.66667L7 9L7.66667 1" stroke="#B38A77" stroke-width="0.7" stroke-linecap="round" stroke-linejoin="round"/>
<path d="M15 3C15 2.46957 14.7893 1.96086 14.4142 1.58579C14.0391 1.21071 13.5304 1 13 1C12.4696 1 11.9609 1.21071 11.5858 1.58579C11.2107 1.96086 11 2.46957 11 3V7C11 7.53043 11.2107 8.03914 11.5858 8.41421C11.9609 8.78929 12.4696 9 13 9C13.5304 9 14.0391 8.78929 14.4142 8.41421C14.7893 8.03914 15 7.53043 15 7" stroke="#B38A77" stroke-width="0.7" stroke-linecap="round" stroke-linejoin="round"/>
</svg>
