<svg width="86" height="84" viewBox="0 0 86 84" fill="none" xmlns="http://www.w3.org/2000/svg">
<rect width="86" height="84" fill="url(#paint0_linear_970_932)"/>
<path d="M48.8358 17.6318C47.9758 18.5829 47.0237 19.715 45.9866 20.987C43.14 24.4785 41.2596 27.635 36.8098 35.1108C36.5359 35.5707 36.685 33.3336 36.7004 33.1064C37.0502 28.7708 37.9916 24.5011 37.792 20.1359C37.2125 13.9556 33.1092 21.1064 31.8714 24.2891C30.6364 27.4101 29.7729 30.7842 29.6174 34.1737C29.5533 35.1916 29.5122 39.9455 30.7356 39.9045C26.9615 31.9584 40.3933 3.99027 36.7985 27.2178C36.6006 29.8218 36.1688 32.0351 36.1549 35.0211C36.1505 35.5858 36.4778 36.068 37.017 35.7917C37.4683 35.5065 37.7205 34.9859 38.0157 34.5394C38.8524 33.1976 39.6693 31.8404 40.5271 30.5129C42.7924 26.9764 45.1067 23.4617 47.711 20.1931C48.4207 19.2824 49.1519 18.465 49.9356 17.6318H48.8358Z" fill="url(#paint1_radial_970_932)"/>
<path d="M53.8105 17.6318C53.3771 22.3397 52.5709 27.016 51.6006 31.6464C50.7187 35.854 49.9938 39.895 48.4557 44.6088C48.3029 45.0775 47.955 45.8516 48.1382 46.3361C48.1659 46.4094 48.2668 46.4248 48.3133 46.3611C48.9854 45.4418 50.739 39.0485 51.2952 36.6426C53.5446 26.9144 54.5744 20.891 54.5591 17.6318H53.8105Z" fill="url(#paint2_radial_970_932)"/>
<path d="M13.1506 56.3318H12.4829L13.458 50.125L15.707 55.0887L17.9999 50.1162L18.9135 56.3318H18.2458L17.6924 52.241L15.6982 56.5786L13.7304 52.241L13.1506 56.3318Z" fill="white"/>
<path d="M26.5589 56.3318L25.8736 54.6743H23.3787L22.6759 56.3318H21.9556L24.6525 50.1691L27.2792 56.3318H26.5589ZM23.6335 54.0571H25.6189L24.635 51.7032L23.6335 54.0571Z" fill="white"/>
<path d="M33.2385 51.0684H31.8153V56.3318H31.1653V51.0684H29.7421V50.4512H33.2385V51.0684Z" fill="white"/>
<path d="M40.6585 50.9361V51.7472C40.4242 51.5121 40.1695 51.3299 39.8942 51.2006C39.5604 51.0478 39.2236 50.9714 38.8839 50.9714C38.2104 50.9714 37.6482 51.2094 37.1972 51.6855C36.7521 52.1557 36.5296 52.7347 36.5296 53.4224C36.5296 54.1629 36.7726 54.7478 37.2587 55.1768C37.7507 55.6059 38.2953 55.8204 38.8927 55.8204C39.2675 55.8204 39.6307 55.7293 39.9821 55.5471C40.228 55.4237 40.4535 55.2591 40.6585 55.0534V55.8645C40.1255 56.2465 39.5369 56.4376 38.8927 56.4376C38.0259 56.4376 37.3026 56.1466 36.7228 55.5647C36.1489 54.9829 35.8619 54.2658 35.8619 53.4135C35.8619 52.5378 36.1518 51.809 36.7316 51.2271C37.3173 50.6452 38.0494 50.3543 38.9279 50.3543C39.5721 50.3543 40.149 50.5482 40.6585 50.9361Z" fill="white"/>
<path d="M44.8795 50.4512V52.8405H47.884V50.4512H48.5341V56.3318H47.884V53.4576H44.8795V56.3318H44.2294V50.4512H44.8795Z" fill="white"/>
<path d="M53.6566 56.3318V53.8015L51.7327 50.4512H52.4882L53.9817 53.0785L55.4927 50.4512H56.2482L54.3067 53.8015V56.3318H53.6566Z" fill="white"/>
<path d="M64.1271 55.5647C63.5414 56.1466 62.821 56.4376 61.966 56.4376C61.1109 56.4376 60.3876 56.1466 59.7961 55.5647C59.2104 54.9829 58.9176 54.2599 58.9176 53.3959C58.9176 52.526 59.2133 51.8031 59.8049 51.2271C60.3964 50.6452 61.1168 50.3543 61.966 50.3543C62.8152 50.3543 63.5355 50.6452 64.1271 51.2271C64.7186 51.8031 65.0143 52.526 65.0143 53.3959C65.0143 54.2599 64.7186 54.9829 64.1271 55.5647ZM63.6527 51.6767C63.19 51.2065 62.6278 50.9714 61.966 50.9714C61.3042 50.9714 60.7419 51.2065 60.2793 51.6767C59.8166 52.1469 59.5852 52.72 59.5852 53.3959C59.5852 54.0718 59.8166 54.6449 60.2793 55.1151C60.7419 55.5853 61.3042 55.8204 61.966 55.8204C62.6278 55.8204 63.19 55.5853 63.6527 55.1151C64.1154 54.6449 64.3467 54.0718 64.3467 53.3959C64.3467 52.72 64.1154 52.1469 63.6527 51.6767Z" fill="white"/>
<path d="M69.2306 50.4512V54.0571C69.2306 54.2805 69.2336 54.4539 69.2394 54.5773C69.2511 54.7007 69.2921 54.8535 69.3624 55.0358C69.4385 55.2121 69.5498 55.362 69.6962 55.4854C69.9598 55.7087 70.2819 55.8204 70.6626 55.8204C71.0433 55.8204 71.3654 55.7087 71.6289 55.4854C71.7753 55.362 71.8837 55.2121 71.954 55.0358C72.0301 54.8535 72.0711 54.7007 72.077 54.5773C72.0887 54.4539 72.0945 54.2805 72.0945 54.0571V50.4512H72.7446V54.2335C72.7446 54.833 72.6216 55.3032 72.3757 55.6441C72.1941 55.8909 71.954 56.0849 71.6553 56.226C71.3624 56.367 71.0316 56.4376 70.6626 56.4376C70.2936 56.4376 69.9598 56.367 69.6611 56.226C69.3683 56.0849 69.1311 55.8909 68.9495 55.6441C68.7035 55.3032 68.5806 54.833 68.5806 54.2335V50.4512H69.2306Z" fill="white"/>
<path d="M24.9644 59.8683H25.1687V60.9727H24.9644V59.8683ZM24.3953 60.9727H24.1909V59.8683H24.3953V60.9727ZM24.9801 60.4994H24.378V60.3243H24.9801V60.4994Z" fill="#D7A69C"/>
<path d="M26.4823 60.9885C26.3963 60.9885 26.3172 60.9743 26.2449 60.9459C26.1726 60.9175 26.1097 60.878 26.0563 60.8275C26.0028 60.776 25.9614 60.716 25.9321 60.6477C25.9027 60.5783 25.888 60.5025 25.888 60.4205C25.888 60.3385 25.9027 60.2633 25.9321 60.1949C25.9614 60.1255 26.0028 60.0655 26.0563 60.015C26.1097 59.9635 26.1726 59.9235 26.2449 59.8951C26.3172 59.8667 26.3958 59.8525 26.4807 59.8525C26.5666 59.8525 26.6452 59.8667 26.7165 59.8951C26.7888 59.9235 26.8517 59.9635 26.9052 60.015C26.9586 60.0655 27 60.1255 27.0294 60.1949C27.0587 60.2633 27.0734 60.3385 27.0734 60.4205C27.0734 60.5025 27.0587 60.5783 27.0294 60.6477C27 60.7171 26.9586 60.7771 26.9052 60.8275C26.8517 60.878 26.7888 60.9175 26.7165 60.9459C26.6452 60.9743 26.5672 60.9885 26.4823 60.9885ZM26.4807 60.8086C26.5363 60.8086 26.5876 60.7991 26.6348 60.7802C26.6819 60.7613 26.7228 60.7345 26.7574 60.6997C26.792 60.664 26.8187 60.623 26.8376 60.5767C26.8575 60.5294 26.8674 60.4773 26.8674 60.4205C26.8674 60.3637 26.8575 60.3122 26.8376 60.2659C26.8187 60.2186 26.792 60.1775 26.7574 60.1428C26.7228 60.1071 26.6819 60.0797 26.6348 60.0608C26.5876 60.0419 26.5363 60.0324 26.4807 60.0324C26.4252 60.0324 26.3738 60.0419 26.3266 60.0608C26.2805 60.0797 26.2397 60.1071 26.204 60.1428C26.1694 60.1775 26.1422 60.2186 26.1223 60.2659C26.1034 60.3122 26.094 60.3637 26.094 60.4205C26.094 60.4762 26.1034 60.5278 26.1223 60.5751C26.1422 60.6224 26.1694 60.664 26.204 60.6997C26.2386 60.7345 26.2795 60.7613 26.3266 60.7802C26.3738 60.7991 26.4252 60.8086 26.4807 60.8086Z" fill="#D7A69C"/>
<path d="M27.793 60.9727V59.8683H27.9613L28.4423 60.6745H28.3543L28.8274 59.8683H28.9957L28.9972 60.9727H28.8039L28.8023 60.1728H28.8432L28.4407 60.8465H28.3495L27.9408 60.1728H27.988V60.9727H27.793Z" fill="#D7A69C"/>
<path d="M29.9862 60.3274H30.5332V60.4962H29.9862V60.3274ZM30.0019 60.8007H30.6228V60.9727H29.7975V59.8683H30.6008V60.0403H30.0019V60.8007Z" fill="#D7A69C"/>
<path d="M32.8006 60.9885C32.7167 60.9885 32.6387 60.9748 32.5663 60.9474C32.4951 60.919 32.4327 60.8796 32.3793 60.8291C32.3269 60.7776 32.286 60.7171 32.2567 60.6477C32.2273 60.5783 32.2126 60.5025 32.2126 60.4205C32.2126 60.3385 32.2273 60.2627 32.2567 60.1933C32.286 60.1239 32.3274 60.0639 32.3808 60.0135C32.4343 59.9619 32.4967 59.9225 32.5679 59.8951C32.6392 59.8667 32.7173 59.8525 32.8022 59.8525C32.8923 59.8525 32.9746 59.8683 33.049 59.8999C33.1234 59.9304 33.1863 59.9761 33.2376 60.0371L33.1056 60.1618C33.0657 60.1186 33.0212 60.0866 32.9719 60.0655C32.9227 60.0434 32.8692 60.0324 32.8116 60.0324C32.7539 60.0324 32.701 60.0419 32.6528 60.0608C32.6056 60.0797 32.5642 60.1065 32.5286 60.1413C32.494 60.176 32.4668 60.217 32.4469 60.2643C32.428 60.3116 32.4186 60.3637 32.4186 60.4205C32.4186 60.4773 32.428 60.5294 32.4469 60.5767C32.4668 60.624 32.494 60.665 32.5286 60.6997C32.5642 60.7345 32.6056 60.7613 32.6528 60.7802C32.701 60.7991 32.7539 60.8086 32.8116 60.8086C32.8692 60.8086 32.9227 60.7981 32.9719 60.7771C33.0212 60.755 33.0657 60.7218 33.1056 60.6777L33.2376 60.8039C33.1863 60.8638 33.1234 60.9096 33.049 60.9411C32.9746 60.9727 32.8918 60.9885 32.8006 60.9885Z" fill="#D7A69C"/>
<path d="M34.7099 59.8683H34.9143V60.9727H34.7099V59.8683ZM34.1408 60.9727H33.9365V59.8683H34.1408V60.9727ZM34.7256 60.4994H34.1236V60.3243H34.7256V60.4994Z" fill="#D7A69C"/>
<path d="M35.5566 60.9727L36.0518 59.8683H36.253L36.7498 60.9727H36.536L36.1099 59.9772H36.1917L35.7672 60.9727H35.5566ZM35.7845 60.7171L35.8395 60.5562H36.4338L36.4888 60.7171H35.7845Z" fill="#D7A69C"/>
<path d="M37.3928 60.9727V59.8683H37.561L38.2511 60.7187H38.1678V59.8683H38.3706V60.9727H38.2024L37.5122 60.1223H37.5956V60.9727H37.3928Z" fill="#D7A69C"/>
<path d="M39.6826 60.9885C39.5966 60.9885 39.5175 60.9748 39.4452 60.9474C39.3739 60.919 39.3116 60.8796 39.2581 60.8291C39.2047 60.7776 39.1633 60.7171 39.1339 60.6477C39.1046 60.5783 39.0899 60.5025 39.0899 60.4205C39.0899 60.3385 39.1046 60.2627 39.1339 60.1933C39.1633 60.1239 39.2047 60.0639 39.2581 60.0135C39.3126 59.9619 39.376 59.9225 39.4483 59.8951C39.5206 59.8667 39.5998 59.8525 39.6857 59.8525C39.779 59.8525 39.8628 59.8678 39.9372 59.8983C40.0127 59.9288 40.0761 59.9735 40.1274 60.0324L39.9985 60.1586C39.9556 60.1155 39.9089 60.0839 39.8586 60.0639C39.8094 60.0429 39.7549 60.0324 39.6951 60.0324C39.6375 60.0324 39.584 60.0419 39.5348 60.0608C39.4855 60.0797 39.4431 60.1065 39.4074 60.1413C39.3718 60.176 39.344 60.217 39.3241 60.2643C39.3053 60.3116 39.2958 60.3637 39.2958 60.4205C39.2958 60.4762 39.3053 60.5278 39.3241 60.5751C39.344 60.6224 39.3718 60.664 39.4074 60.6997C39.4431 60.7345 39.485 60.7613 39.5332 60.7802C39.5814 60.7991 39.6349 60.8086 39.6936 60.8086C39.7481 60.8086 39.8005 60.8002 39.8508 60.7834C39.9021 60.7655 39.9508 60.736 39.997 60.695L40.1133 60.848C40.0557 60.8943 39.9886 60.9296 39.9121 60.9538C39.8366 60.9769 39.7601 60.9885 39.6826 60.9885ZM39.9199 60.8212V60.4079H40.1133V60.848L39.9199 60.8212Z" fill="#D7A69C"/>
<path d="M41.0745 60.3274H41.6216V60.4962H41.0745V60.3274ZM41.0903 60.8007H41.7112V60.9727H40.8859V59.8683H41.6892V60.0403H41.0903V60.8007Z" fill="#D7A69C"/>
<path d="M42.7832 60.9885C42.6973 60.9885 42.615 60.9764 42.5364 60.9522C42.4578 60.9269 42.3955 60.8949 42.3493 60.8559L42.4201 60.6966C42.4641 60.7313 42.5186 60.7602 42.5836 60.7834C42.6486 60.8065 42.7151 60.8181 42.7832 60.8181C42.8409 60.8181 42.8875 60.8118 42.9231 60.7991C42.9588 60.7865 42.985 60.7697 43.0017 60.7487C43.0185 60.7266 43.0269 60.7019 43.0269 60.6745C43.0269 60.6408 43.0148 60.614 42.9907 60.594C42.9666 60.573 42.9352 60.5567 42.8964 60.5451C42.8587 60.5325 42.8162 60.5209 42.7691 60.5104C42.723 60.4999 42.6763 60.4878 42.6292 60.4741C42.583 60.4594 42.5406 60.441 42.5018 60.4189C42.4641 60.3958 42.4332 60.3653 42.4091 60.3274C42.385 60.2896 42.3729 60.2412 42.3729 60.1823C42.3729 60.1223 42.3886 60.0676 42.4201 60.0182C42.4526 59.9677 42.5013 59.9277 42.5663 59.8983C42.6323 59.8678 42.7156 59.8525 42.8162 59.8525C42.8823 59.8525 42.9478 59.861 43.0127 59.8778C43.0777 59.8946 43.1343 59.9188 43.1825 59.9504L43.1181 60.1097C43.0688 60.0802 43.018 60.0587 42.9656 60.045C42.9132 60.0303 42.8629 60.0229 42.8147 60.0229C42.7581 60.0229 42.712 60.0298 42.6763 60.0434C42.6417 60.0571 42.6161 60.075 42.5993 60.0971C42.5836 60.1192 42.5757 60.1444 42.5757 60.1728C42.5757 60.2065 42.5872 60.2338 42.6103 60.2548C42.6344 60.2748 42.6653 60.2906 42.7031 60.3022C42.7418 60.3137 42.7848 60.3253 42.832 60.3369C42.8791 60.3474 42.9258 60.3595 42.9719 60.3732C43.019 60.3868 43.0615 60.4047 43.0992 60.4268C43.138 60.4489 43.1689 60.4789 43.192 60.5167C43.2161 60.5546 43.2281 60.6025 43.2281 60.6603C43.2281 60.7192 43.2119 60.7739 43.1794 60.8244C43.1479 60.8738 43.0992 60.9138 43.0332 60.9443C42.9672 60.9737 42.8838 60.9885 42.7832 60.9885Z" fill="#D7A69C"/>
<path d="M45.06 60.3274H45.607V60.4962H45.06V60.3274ZM45.0757 60.8007H45.6967V60.9727H44.8713V59.8683H45.6746V60.0403H45.0757V60.8007Z" fill="#D7A69C"/>
<path d="M46.7376 60.9727L46.2565 59.8683H46.4782L46.9074 60.867H46.78L47.2139 59.8683H47.4183L46.9388 60.9727H46.7376Z" fill="#D7A69C"/>
<path d="M48.2261 60.3274H48.7732V60.4962H48.2261V60.3274ZM48.2418 60.8007H48.8628V60.9727H48.0375V59.8683H48.8408V60.0403H48.2418V60.8007Z" fill="#D7A69C"/>
<path d="M49.5937 60.9727V59.8683H50.0464C50.1439 59.8683 50.2272 59.8841 50.2964 59.9156C50.3666 59.9472 50.4206 59.9924 50.4583 60.0513C50.496 60.1102 50.5149 60.1802 50.5149 60.2612C50.5149 60.3421 50.496 60.4121 50.4583 60.471C50.4206 60.5288 50.3666 60.5735 50.2964 60.6051C50.2272 60.6356 50.1439 60.6508 50.0464 60.6508H49.7068L49.798 60.5578V60.9727H49.5937ZM50.3137 60.9727L50.0354 60.572H50.2539L50.5337 60.9727H50.3137ZM49.798 60.5798L49.7068 60.482H50.037C50.1271 60.482 50.1947 60.4626 50.2398 60.4237C50.2859 60.3847 50.3089 60.3306 50.3089 60.2612C50.3089 60.1907 50.2859 60.1365 50.2398 60.0987C50.1947 60.0608 50.1271 60.0419 50.037 60.0419H49.7068L49.798 59.9409V60.5798Z" fill="#D7A69C"/>
<path d="M51.5016 60.9727V60.5357L51.5472 60.6619L51.0693 59.8683H51.2878L51.6714 60.5073H51.5488L51.9355 59.8683H52.1367L51.6588 60.6619L51.706 60.5357V60.9727H51.5016Z" fill="#D7A69C"/>
<path d="M52.9815 60.9727V60.0419H52.6168V59.8683H53.5506V60.0419H53.1859V60.9727H52.9815Z" fill="#D7A69C"/>
<path d="M54.9804 59.8683H55.1848V60.9727H54.9804V59.8683ZM54.4114 60.9727H54.207V59.8683H54.4114V60.9727ZM54.9962 60.4994H54.3941V60.3243H54.9962V60.4994Z" fill="#D7A69C"/>
<path d="M55.9827 60.9727V59.8683H56.1871V60.9727H55.9827Z" fill="#D7A69C"/>
<path d="M56.9878 60.9727V59.8683H57.156L57.8461 60.7187H57.7628V59.8683H57.9656V60.9727H57.7974L57.1073 60.1223H57.1906V60.9727H56.9878Z" fill="#D7A69C"/>
<path d="M59.2776 60.9885C59.1916 60.9885 59.1125 60.9748 59.0402 60.9474C58.9689 60.919 58.9066 60.8796 58.8531 60.8291C58.7997 60.7776 58.7583 60.7171 58.7289 60.6477C58.6996 60.5783 58.6849 60.5025 58.6849 60.4205C58.6849 60.3385 58.6996 60.2627 58.7289 60.1933C58.7583 60.1239 58.7997 60.0639 58.8531 60.0135C58.9076 59.9619 58.971 59.9225 59.0433 59.8951C59.1157 59.8667 59.1948 59.8525 59.2807 59.8525C59.374 59.8525 59.4578 59.8678 59.5322 59.8983C59.6077 59.9288 59.6711 59.9735 59.7225 60.0324L59.5936 60.1586C59.5506 60.1155 59.504 60.0839 59.4536 60.0639C59.4044 60.0429 59.3499 60.0324 59.2902 60.0324C59.2325 60.0324 59.1791 60.0419 59.1298 60.0608C59.0805 60.0797 59.0381 60.1065 59.0025 60.1413C58.9668 60.176 58.9391 60.217 58.9192 60.2643C58.9003 60.3116 58.8909 60.3637 58.8909 60.4205C58.8909 60.4762 58.9003 60.5278 58.9192 60.5751C58.9391 60.6224 58.9668 60.664 59.0025 60.6997C59.0381 60.7345 59.08 60.7613 59.1282 60.7802C59.1764 60.7991 59.2299 60.8086 59.2886 60.8086C59.3431 60.8086 59.3955 60.8002 59.4458 60.7834C59.4971 60.7655 59.5459 60.736 59.592 60.695L59.7083 60.848C59.6507 60.8943 59.5836 60.9296 59.5071 60.9538C59.4316 60.9769 59.3551 60.9885 59.2776 60.9885ZM59.515 60.8212V60.4079H59.7083V60.848L59.515 60.8212Z" fill="#D7A69C"/>
<defs>
<linearGradient id="paint0_linear_970_932" x1="86.3311" y1="-1.00865" x2="-7.03274" y2="75.4075" gradientUnits="userSpaceOnUse">
<stop stop-color="#434343"/>
<stop offset="1" stop-color="#101010"/>
</linearGradient>
<radialGradient id="paint1_radial_970_932" cx="0" cy="0" r="1" gradientUnits="userSpaceOnUse" gradientTransform="translate(42.0754 32.0165) rotate(90) scale(14.3846 12.4839)">
<stop stop-color="#E7B3A5"/>
<stop offset="1" stop-color="#A2645D"/>
</radialGradient>
<radialGradient id="paint2_radial_970_932" cx="0" cy="0" r="1" gradientUnits="userSpaceOnUse" gradientTransform="translate(51.3227 32.0165) rotate(90) scale(14.3846 3.23656)">
<stop stop-color="#AE847F"/>
<stop offset="1" stop-color="#A2645D"/>
</radialGradient>
</defs>
</svg>
