<svg width="11" height="12" viewBox="0 0 11 12" fill="none" xmlns="http://www.w3.org/2000/svg">
<path d="M4.00277 1.2683C3.83403 0.804274 3.42548 0.5 2.97115 0.5H1.44299C0.861648 0.5 0.390381 1.01828 0.390381 1.65777C0.390381 7.09342 4.39627 11.5 9.33763 11.5C9.91897 11.5 10.3901 10.9816 10.3901 10.3421L10.3904 8.66076C10.3904 8.16099 10.1138 7.71164 9.69202 7.52603L8.22736 6.8818C7.84844 6.71507 7.41703 6.79011 7.10351 7.07751L6.72551 7.42431C6.28404 7.82899 5.63449 7.79681 5.22814 7.34982L4.16374 6.17787C3.7574 5.73088 3.72737 5.01693 4.09526 4.53131L4.41046 4.11552C4.67172 3.77064 4.74054 3.29593 4.58897 2.87911L4.00277 1.2683Z" stroke="#685C56" stroke-width="0.7" stroke-linecap="round" stroke-linejoin="round"/>
</svg>
