<svg width="222" height="83" viewBox="0 0 222 83" fill="none" xmlns="http://www.w3.org/2000/svg">
<g filter="url(#filter0_d_742_488)">
<path d="M52 33C52 16.9837 15.9834 7 31.9996 7H177C193.016 7 206 19.9837 206 36C206 52.0163 193.016 65 177 65H31.9996C29.508 65 28.2756 64.4554 27.9711 63.5C26.318 58.3139 52 41.0221 52 33Z" fill="white"/>
</g>
<path d="M27.5 78L26.4005 79.0204L27.4916 80.1961L28.5917 79.0287L27.5 78ZM27.5 78C28.5917 79.0287 28.592 79.0284 28.5923 79.028L28.5935 79.0268L28.5975 79.0225L28.6122 79.0068L28.6676 78.9475C28.7159 78.8957 28.7867 78.8194 28.8785 78.7198C29.062 78.5206 29.3294 78.2278 29.6688 77.8498C30.3476 77.0939 31.3147 75.9965 32.474 74.6243C34.7911 71.8815 37.8834 68.0322 40.9788 63.6102C44.0712 59.1925 47.1865 54.1753 49.5334 49.0982C51.8714 44.0404 53.5 38.8114 53.5 34C53.5 19.8866 41.8313 8.5 27.5 8.5C13.1687 8.5 1.5 19.8866 1.5 34C1.5 38.7156 3.13136 43.8968 5.46747 48.9314C7.81363 53.9876 10.9277 59.0157 14.0189 63.4569C17.1132 67.9026 20.2043 71.7883 22.5206 74.5616C23.6795 75.949 24.6461 77.0601 25.3245 77.8259C25.6637 78.2088 25.9309 78.5056 26.1143 78.7075C26.2059 78.8084 26.2766 78.8857 26.3248 78.9382L26.3801 78.9983L26.3947 79.0141L26.3987 79.0184L26.3999 79.0197C26.4003 79.0201 26.4005 79.0204 27.5 78ZM27.5 47.7C19.7854 47.7 13.5854 41.5826 13.5854 34.1C13.5854 26.6174 19.7854 20.5 27.5 20.5C35.2146 20.5 41.4146 26.6174 41.4146 34.1C41.4146 41.5826 35.2146 47.7 27.5 47.7Z" fill="#AD6744" stroke="white" stroke-width="3"/>
<path d="M75.16 23.56L70.96 33.08H69.7L71.464 29.09L69 23.56H70.33L72.374 28.6L71.912 28.544L73.9 23.56H75.16ZM81.858 23.56V30H80.738V24.61H77.448V27.76C77.448 28.264 77.3687 28.684 77.21 29.02C77.0607 29.3467 76.8273 29.594 76.51 29.762C76.1927 29.9207 75.7913 30 75.306 30V28.978C75.586 28.978 75.824 28.8893 76.02 28.712C76.2253 28.5347 76.328 28.2173 76.328 27.76V23.56H81.858ZM89.4127 24.68L84.0927 30.49L84.1627 28.88L89.4827 23.07L89.4127 24.68ZM85.2127 23.56V28.95L84.0927 30.49V23.56H85.2127ZM89.4827 23.07V30H88.3627V24.61L89.4827 23.07ZM96.9016 28.95H98.0216V31.26H97.0416V30H91.6516V23.56H92.7716V28.95H95.7816V23.56H96.9016V28.95ZM100.072 28.11C100.072 28.334 100.132 28.5253 100.254 28.684C100.375 28.8333 100.538 28.95 100.744 29.034C100.949 29.1087 101.178 29.146 101.43 29.146C101.803 29.146 102.134 29.09 102.424 28.978C102.713 28.866 102.937 28.6887 103.096 28.446C103.264 28.2033 103.348 27.8813 103.348 27.48L103.572 28.18C103.572 28.5907 103.46 28.9453 103.236 29.244C103.021 29.5333 102.732 29.7573 102.368 29.916C102.004 30.0653 101.598 30.14 101.15 30.14C100.748 30.14 100.38 30.0653 100.044 29.916C99.7076 29.7667 99.4369 29.5473 99.2316 29.258C99.0356 28.9593 98.9376 28.5907 98.9376 28.152C98.9376 27.6947 99.0496 27.3073 99.2736 26.99C99.4976 26.6727 99.8149 26.43 100.226 26.262C100.636 26.0847 101.122 25.996 101.682 25.996C102.092 25.996 102.442 26.052 102.732 26.164C103.03 26.2667 103.268 26.388 103.446 26.528C103.623 26.6587 103.744 26.766 103.81 26.85V27.508C103.492 27.284 103.17 27.1207 102.844 27.018C102.517 26.906 102.148 26.85 101.738 26.85C101.364 26.85 101.052 26.9013 100.8 27.004C100.557 27.1067 100.375 27.2513 100.254 27.438C100.132 27.6247 100.072 27.8487 100.072 28.11ZM100.072 25.072L99.5256 24.218C99.7682 24.0407 100.095 23.8633 100.506 23.686C100.916 23.5087 101.411 23.42 101.99 23.42C102.484 23.42 102.914 23.4993 103.278 23.658C103.651 23.8073 103.94 24.0267 104.146 24.316C104.36 24.6053 104.468 24.96 104.468 25.38V30H103.348V25.38C103.348 25.0533 103.208 24.8107 102.928 24.652C102.657 24.484 102.344 24.4 101.99 24.4C101.682 24.4 101.402 24.442 101.15 24.526C100.898 24.6007 100.678 24.694 100.492 24.806C100.314 24.9087 100.174 24.9973 100.072 25.072ZM119.17 21.53L110.63 30.49L110.7 28.67L119.24 19.71L119.17 21.53ZM111.82 20.2V28.95L110.63 30.49V20.2H111.82ZM119.24 19.71V30H118.05V21.25L119.24 19.71ZM127.057 23.56V30H125.937V24.61H122.647V27.76C122.647 28.264 122.568 28.684 122.409 29.02C122.26 29.3467 122.027 29.594 121.709 29.762C121.392 29.9207 120.991 30 120.505 30V28.978C120.785 28.978 121.023 28.8893 121.219 28.712C121.425 28.5347 121.527 28.2173 121.527 27.76V23.56H127.057ZM129.222 23.56H130.342V30H129.222V23.56ZM129.88 26.976V25.996H131.882C132.545 25.996 133.1 26.1593 133.548 26.486C134.005 26.8033 134.234 27.3073 134.234 27.998C134.234 28.4553 134.131 28.8333 133.926 29.132C133.721 29.4307 133.441 29.65 133.086 29.79C132.731 29.93 132.33 30 131.882 30H129.88V29.02H131.882C132.153 29.02 132.377 28.9827 132.554 28.908C132.741 28.824 132.881 28.7073 132.974 28.558C133.067 28.3993 133.114 28.2127 133.114 27.998C133.114 27.6713 133.011 27.4193 132.806 27.242C132.601 27.0647 132.293 26.976 131.882 26.976H129.88ZM141.379 24.68L136.059 30.49L136.129 28.88L141.449 23.07L141.379 24.68ZM137.179 23.56V28.95L136.059 30.49V23.56H137.179ZM141.449 23.07V30H140.329V24.61L141.449 23.07ZM144.276 27.13V26.08H149.036V27.13H144.276ZM148.308 23.56H149.428V30H148.308V23.56ZM143.618 23.56H144.738V30H143.618V23.56ZM151.464 23.56H152.584V30H151.464V23.56ZM154.964 23.56H156.364L153.564 26.22L156.644 30H155.244L152.164 26.22L154.964 23.56ZM158.204 28.11C158.204 28.334 158.265 28.5253 158.386 28.684C158.508 28.8333 158.671 28.95 158.876 29.034C159.082 29.1087 159.31 29.146 159.562 29.146C159.936 29.146 160.267 29.09 160.556 28.978C160.846 28.866 161.07 28.6887 161.228 28.446C161.396 28.2033 161.48 27.8813 161.48 27.48L161.704 28.18C161.704 28.5907 161.592 28.9453 161.368 29.244C161.154 29.5333 160.864 29.7573 160.5 29.916C160.136 30.0653 159.73 30.14 159.282 30.14C158.881 30.14 158.512 30.0653 158.176 29.916C157.84 29.7667 157.57 29.5473 157.364 29.258C157.168 28.9593 157.07 28.5907 157.07 28.152C157.07 27.6947 157.182 27.3073 157.406 26.99C157.63 26.6727 157.948 26.43 158.358 26.262C158.769 26.0847 159.254 25.996 159.814 25.996C160.225 25.996 160.575 26.052 160.864 26.164C161.163 26.2667 161.401 26.388 161.578 26.528C161.756 26.6587 161.877 26.766 161.942 26.85V27.508C161.625 27.284 161.303 27.1207 160.976 27.018C160.65 26.906 160.281 26.85 159.87 26.85C159.497 26.85 159.184 26.9013 158.932 27.004C158.69 27.1067 158.508 27.2513 158.386 27.438C158.265 27.6247 158.204 27.8487 158.204 28.11ZM158.204 25.072L157.658 24.218C157.901 24.0407 158.228 23.8633 158.638 23.686C159.049 23.5087 159.544 23.42 160.122 23.42C160.617 23.42 161.046 23.4993 161.41 23.658C161.784 23.8073 162.073 24.0267 162.278 24.316C162.493 24.6053 162.6 24.96 162.6 25.38V30H161.48V25.38C161.48 25.0533 161.34 24.8107 161.06 24.652C160.79 24.484 160.477 24.4 160.122 24.4C159.814 24.4 159.534 24.442 159.282 24.526C159.03 24.6007 158.811 24.694 158.624 24.806C158.447 24.9087 158.307 24.9973 158.204 25.072ZM165.517 28.46L166.637 28.88L165.097 32.38L164.285 32.086L165.517 28.46ZM70.554 45.78C70.554 46.228 70.6473 46.6247 70.834 46.97C71.03 47.3153 71.2913 47.5907 71.618 47.796C71.954 47.992 72.332 48.09 72.752 48.09C73.0973 48.09 73.4193 48.0387 73.718 47.936C74.026 47.824 74.292 47.6793 74.516 47.502C74.74 47.3153 74.8987 47.1193 74.992 46.914V48.314C74.768 48.5753 74.446 48.7807 74.026 48.93C73.6153 49.07 73.1907 49.14 72.752 49.14C72.1267 49.14 71.562 48.9953 71.058 48.706C70.554 48.4167 70.1527 48.02 69.854 47.516C69.5647 47.0027 69.42 46.424 69.42 45.78C69.42 45.1267 69.5647 44.548 69.854 44.044C70.1527 43.54 70.554 43.1433 71.058 42.854C71.562 42.5647 72.1267 42.42 72.752 42.42C73.1907 42.42 73.6153 42.4947 74.026 42.644C74.446 42.784 74.768 42.9847 74.992 43.246V44.646C74.8987 44.4313 74.74 44.2353 74.516 44.058C74.292 43.8807 74.026 43.7407 73.718 43.638C73.4193 43.526 73.0973 43.47 72.752 43.47C72.332 43.47 71.954 43.568 71.618 43.764C71.2913 43.96 71.03 44.2353 70.834 44.59C70.6473 44.9353 70.554 45.332 70.554 45.78ZM75.7555 42.56H79.5355V43.61H75.7555V42.56ZM77.0855 42.84H78.2055V49H77.0855V42.84ZM81.7094 52.08H80.5894V42.56H81.7094V52.08ZM87.0994 45.78C87.0994 46.4707 86.9547 47.068 86.6654 47.572C86.376 48.076 85.9887 48.4633 85.5034 48.734C85.0274 49.0047 84.4954 49.14 83.9074 49.14C83.3754 49.14 82.904 49.0047 82.4934 48.734C82.092 48.4633 81.7747 48.076 81.5414 47.572C81.3174 47.068 81.2054 46.4707 81.2054 45.78C81.2054 45.08 81.3174 44.4827 81.5414 43.988C81.7747 43.484 82.092 43.0967 82.4934 42.826C82.904 42.5553 83.3754 42.42 83.9074 42.42C84.4954 42.42 85.0274 42.5553 85.5034 42.826C85.9887 43.0967 86.376 43.484 86.6654 43.988C86.9547 44.4827 87.0994 45.08 87.0994 45.78ZM85.9654 45.78C85.9654 45.2853 85.8627 44.8653 85.6574 44.52C85.4614 44.1747 85.1954 43.9133 84.8594 43.736C84.5327 43.5587 84.1687 43.47 83.7674 43.47C83.4407 43.47 83.1187 43.5587 82.8014 43.736C82.484 43.9133 82.2227 44.1747 82.0174 44.52C81.812 44.8653 81.7094 45.2853 81.7094 45.78C81.7094 46.2747 81.812 46.6947 82.0174 47.04C82.2227 47.3853 82.484 47.6467 82.8014 47.824C83.1187 48.0013 83.4407 48.09 83.7674 48.09C84.1687 48.09 84.5327 48.0013 84.8594 47.824C85.1954 47.6467 85.4614 47.3853 85.6574 47.04C85.8627 46.6947 85.9654 46.2747 85.9654 45.78ZM88.0838 45.78C88.0838 45.1267 88.2284 44.548 88.5177 44.044C88.8164 43.54 89.2178 43.1433 89.7218 42.854C90.2258 42.5647 90.7904 42.42 91.4158 42.42C92.0504 42.42 92.6151 42.5647 93.1098 42.854C93.6138 43.1433 94.0104 43.54 94.2998 44.044C94.5984 44.548 94.7478 45.1267 94.7478 45.78C94.7478 46.424 94.5984 47.0027 94.2998 47.516C94.0104 48.02 93.6138 48.4167 93.1098 48.706C92.6151 48.9953 92.0504 49.14 91.4158 49.14C90.7904 49.14 90.2258 48.9953 89.7218 48.706C89.2178 48.4167 88.8164 48.02 88.5177 47.516C88.2284 47.0027 88.0838 46.424 88.0838 45.78ZM89.2178 45.78C89.2178 46.228 89.3111 46.6247 89.4978 46.97C89.6938 47.3153 89.9551 47.5907 90.2818 47.796C90.6178 47.992 90.9958 48.09 91.4158 48.09C91.8358 48.09 92.2091 47.992 92.5358 47.796C92.8718 47.5907 93.1331 47.3153 93.3198 46.97C93.5158 46.6247 93.6138 46.228 93.6138 45.78C93.6138 45.332 93.5158 44.9353 93.3198 44.59C93.1331 44.2353 92.8718 43.96 92.5358 43.764C92.2091 43.568 91.8358 43.47 91.4158 43.47C90.9958 43.47 90.6178 43.568 90.2818 43.764C89.9551 43.96 89.6938 44.2353 89.4978 44.59C89.3111 44.9353 89.2178 45.332 89.2178 45.78ZM96.4403 46.06V45.108H100.738C100.701 44.772 100.608 44.478 100.458 44.226C100.318 43.9647 100.118 43.764 99.8563 43.624C99.6043 43.4747 99.2917 43.4 98.9183 43.4C98.545 43.4 98.2043 43.4793 97.8963 43.638C97.5883 43.7967 97.341 44.0253 97.1543 44.324C96.977 44.6133 96.8883 44.9587 96.8883 45.36L96.8603 45.78C96.8603 46.2747 96.9443 46.6947 97.1123 47.04C97.2803 47.3853 97.5183 47.6467 97.8263 47.824C98.1343 48.0013 98.4983 48.09 98.9183 48.09C99.2357 48.09 99.5157 48.0433 99.7583 47.95C100.01 47.8473 100.234 47.712 100.43 47.544C100.626 47.3667 100.794 47.1613 100.934 46.928L101.844 47.502C101.63 47.8287 101.392 48.118 101.13 48.37C100.869 48.6127 100.552 48.804 100.178 48.944C99.805 49.0747 99.3383 49.14 98.7783 49.14C98.1997 49.14 97.677 48.9953 97.2103 48.706C96.753 48.4167 96.389 48.02 96.1183 47.516C95.857 47.0027 95.7263 46.424 95.7263 45.78C95.7263 45.6587 95.731 45.542 95.7403 45.43C95.7497 45.318 95.7637 45.206 95.7823 45.094C95.8757 44.562 96.0623 44.0953 96.3423 43.694C96.6223 43.2927 96.9817 42.98 97.4203 42.756C97.8683 42.532 98.3677 42.42 98.9183 42.42C99.525 42.42 100.057 42.5553 100.514 42.826C100.972 43.0967 101.326 43.4793 101.578 43.974C101.83 44.4593 101.956 45.0427 101.956 45.724C101.956 45.78 101.956 45.836 101.956 45.892C101.956 45.948 101.952 46.004 101.942 46.06H96.4403ZM104.149 46.13V45.08H108.909V46.13H104.149ZM108.181 42.56H109.301V49H108.181V42.56ZM103.491 42.56H104.611V49H103.491V42.56ZM116.797 43.68L111.477 49.49L111.547 47.88L116.867 42.07L116.797 43.68ZM112.597 42.56V47.95L111.477 49.49V42.56H112.597ZM116.867 42.07V49H115.747V43.61L116.867 42.07ZM119.19 46.06V45.108H123.488C123.451 44.772 123.358 44.478 123.208 44.226C123.068 43.9647 122.868 43.764 122.606 43.624C122.354 43.4747 122.042 43.4 121.668 43.4C121.295 43.4 120.954 43.4793 120.646 43.638C120.338 43.7967 120.091 44.0253 119.904 44.324C119.727 44.6133 119.638 44.9587 119.638 45.36L119.61 45.78C119.61 46.2747 119.694 46.6947 119.862 47.04C120.03 47.3853 120.268 47.6467 120.576 47.824C120.884 48.0013 121.248 48.09 121.668 48.09C121.986 48.09 122.266 48.0433 122.508 47.95C122.76 47.8473 122.984 47.712 123.18 47.544C123.376 47.3667 123.544 47.1613 123.684 46.928L124.594 47.502C124.38 47.8287 124.142 48.118 123.88 48.37C123.619 48.6127 123.302 48.804 122.928 48.944C122.555 49.0747 122.088 49.14 121.528 49.14C120.95 49.14 120.427 48.9953 119.96 48.706C119.503 48.4167 119.139 48.02 118.868 47.516C118.607 47.0027 118.476 46.424 118.476 45.78C118.476 45.6587 118.481 45.542 118.49 45.43C118.5 45.318 118.514 45.206 118.532 45.094C118.626 44.562 118.812 44.0953 119.092 43.694C119.372 43.2927 119.732 42.98 120.17 42.756C120.618 42.532 121.118 42.42 121.668 42.42C122.275 42.42 122.807 42.5553 123.264 42.826C123.722 43.0967 124.076 43.4793 124.328 43.974C124.58 44.4593 124.706 45.0427 124.706 45.724C124.706 45.78 124.706 45.836 124.706 45.892C124.706 45.948 124.702 46.004 124.692 46.06H119.19ZM129.669 49L134.303 44.058C134.517 43.8247 134.699 43.596 134.849 43.372C135.007 43.1387 135.124 42.9053 135.199 42.672C135.283 42.4293 135.325 42.1773 135.325 41.916C135.325 41.7013 135.283 41.4913 135.199 41.286C135.115 41.0807 134.989 40.894 134.821 40.726C134.662 40.558 134.466 40.4227 134.233 40.32C133.999 40.2173 133.733 40.166 133.435 40.166C133.015 40.166 132.651 40.264 132.343 40.46C132.044 40.6467 131.815 40.922 131.657 41.286C131.498 41.6407 131.419 42.0653 131.419 42.56H130.229C130.229 41.86 130.355 41.2487 130.607 40.726C130.859 40.194 131.223 39.7833 131.699 39.494C132.184 39.1953 132.763 39.046 133.435 39.046C133.976 39.046 134.443 39.1393 134.835 39.326C135.227 39.5033 135.549 39.7367 135.801 40.026C136.053 40.306 136.239 40.6093 136.361 40.936C136.482 41.2627 136.543 41.5753 136.543 41.874C136.543 42.378 136.421 42.8773 136.179 43.372C135.936 43.8667 135.623 44.31 135.241 44.702L132.119 47.88H136.585V49H129.669Z" fill="#744D3A"/>
<defs>
<filter id="filter0_d_742_488" x="20.8945" y="0" width="192.105" height="72" filterUnits="userSpaceOnUse" color-interpolation-filters="sRGB">
<feFlood flood-opacity="0" result="BackgroundImageFix"/>
<feColorMatrix in="SourceAlpha" type="matrix" values="0 0 0 0 0 0 0 0 0 0 0 0 0 0 0 0 0 0 127 0" result="hardAlpha"/>
<feOffset/>
<feGaussianBlur stdDeviation="3.5"/>
<feComposite in2="hardAlpha" operator="out"/>
<feColorMatrix type="matrix" values="0 0 0 0 0.804167 0 0 0 0 0.738008 0 0 0 0 0.706997 0 0 0 1 0"/>
<feBlend mode="normal" in2="BackgroundImageFix" result="effect1_dropShadow_742_488"/>
<feBlend mode="normal" in="SourceGraphic" in2="effect1_dropShadow_742_488" result="shape"/>
</filter>
</defs>
</svg>
