<svg width="75" height="75" viewBox="0 0 75 75" fill="none" xmlns="http://www.w3.org/2000/svg">
<path d="M7.98739 55.392L7.70925 56.403L3.55949 71.4854L19.1637 67.4116L20.1194 67.162L20.9876 67.6332C26.0744 70.3937 31.8062 71.8513 37.6407 71.8543H37.6557C56.8649 71.8543 72.4893 56.2904 72.4968 37.1891V37.1889C72.5014 27.9257 68.8851 19.2264 62.3053 12.67C55.7263 6.11432 46.9863 2.50486 37.6557 2.5L7.98739 55.392ZM7.98739 55.392L7.46122 54.4851M7.98739 55.392L7.46122 54.4851M7.46122 54.4851C4.41377 49.2327 2.81149 43.2715 2.81294 37.1619L7.46122 54.4851ZM2.81294 37.1615C2.82074 18.0627 18.4425 2.50066 37.6545 2.5L2.81294 37.1615Z" fill="#59C33C" stroke="white" stroke-width="5"/>
<path fill-rule="evenodd" clip-rule="evenodd" d="M28.8982 22.7592C28.252 21.3241 27.5738 21.2951 26.9596 21.2704C26.4586 21.25 25.8836 21.25 25.31 21.25C24.7364 21.25 23.8026 21.4652 23.0141 22.3288C22.2242 23.191 19.9995 25.2773 19.9995 29.5184C19.9995 33.7595 23.0853 37.8595 23.5151 38.4353C23.945 39.0096 29.4718 47.9933 38.2252 51.4492C45.499 54.3207 46.9801 53.7493 48.5586 53.6069C50.1371 53.4629 53.6527 51.5219 54.3715 49.5083C55.0888 47.4946 55.0888 45.7703 54.8739 45.4097C54.659 45.0506 54.084 44.8354 53.2228 44.4036C52.3617 43.9718 48.1288 41.8869 47.3388 41.599C46.5488 41.3111 45.9752 41.1686 45.4017 42.0308C44.8281 42.893 43.1784 44.8339 42.676 45.4097C42.1736 45.9854 41.6711 46.0581 40.81 45.6263C39.9489 45.1945 37.1753 44.2844 33.8848 41.3475C31.3247 39.0619 29.5967 36.2399 29.0942 35.3777C28.5918 34.5155 29.0405 34.0488 29.4718 33.6184C29.858 33.2317 30.3329 32.6123 30.7642 32.1093C31.194 31.6062 31.3378 31.2471 31.6238 30.6714C31.9114 30.0956 31.7676 29.5926 31.5527 29.1607C31.3378 28.7289 29.6635 24.4661 28.8982 22.7606" fill="white"/>
</svg>
